<svg width="197" height="40" viewBox="0 0 197 40" fill="none" xmlns="http://www.w3.org/2000/svg">
<g clip-path="url(#clip0_1865_4451)">
<path d="M24.5 14.3333V9.66667C24.5 8.75 23.75 8 22.8333 8H18.1667C17.25 8 16.5 8.75 16.5 9.66667V14.3333C16.5 15.25 15.75 16 14.8333 16H10.1667C9.25 16 8.5 16.75 8.5 17.6667V22.3333C8.5 23.25 9.25 24 10.1667 24H14.8333C15.75 24 16.5 24.75 16.5 25.6667V30.3333C16.5 31.25 17.25 32 18.1667 32H22.8333C23.75 32 24.5 31.25 24.5 30.3333V25.6667C24.5 24.75 25.25 24 26.1667 24H30.8333C31.75 24 32.5 24.75 32.5 25.6667V30.3333C32.5 31.25 31.75 32 30.8333 32H26.1667C25.25 32 24.5 32.75 24.5 33.6667V38.3333C24.5 39.25 23.75 40 22.8333 40H18.1667C17.25 40 16.5 39.25 16.5 38.3333V33.6667C16.5 32.75 15.75 32 14.8333 32H10.1667C9.25 32 8.5 31.25 8.5 30.3333V25.6667C8.5 24.75 7.75 24 6.83333 24H2.16667C1.25 24 0.5 23.25 0.5 22.3333V17.6667C0.5 16.75 1.25 16 2.16667 16H6.83333C7.75 16 8.5 15.25 8.5 14.3333V9.66667C8.5 8.75 9.25 8 10.1667 8H14.8333C15.75 8 16.5 7.25 16.5 6.33333V1.66667C16.5 0.75 17.25 0 18.1667 0H22.8333C23.75 0 24.5 0.75 24.5 1.66667V6.33333C24.5 7.25 25.25 8 26.1667 8H30.8333C31.75 8 32.5 8.75 32.5 9.66667V14.3333C32.5 15.25 31.75 16 30.8333 16H26.1667C25.25 16 24.5 15.25 24.5 14.3333Z" fill="#2988CC"/>
<path d="M53.9165 32.3334C51.7498 32.3334 49.6665 31.8334 48.4165 31.1667V8.08337H51.7498V16C52.5832 15.6667 53.8332 15.3334 54.9165 15.3334C59.1665 15.3334 61.9998 18.4167 61.9998 23.4167C61.9998 29.5834 58.8332 32.3334 53.9165 32.3334ZM54.3332 17.9167C53.4165 17.9167 52.3332 18.1667 51.7498 18.5V29.3334C52.2498 29.5834 53.1665 29.75 54.1665 29.75C56.8332 29.75 58.7498 27.9167 58.7498 23.75C58.6665 20.0834 56.9998 17.9167 54.3332 17.9167Z" fill="#002B5C"/>
<path d="M78.1667 23.6667L67.25 25.1667C67.5833 28.1667 69.5 29.5834 72.25 29.5834C73.9167 29.5834 75.6667 29.1667 76.8333 28.5834L77.8333 31.0834C76.5833 31.7501 74.3333 32.2501 72.0833 32.2501C66.9167 32.2501 64 28.9167 64 23.6667C64 18.6667 66.8333 15.1667 71.4167 15.1667C75.6667 15.1667 78.25 18.0001 78.25 22.4167C78.1667 22.8334 78.1667 23.2501 78.1667 23.6667ZM71.3333 17.6667C68.75 17.6667 67.0833 19.5834 67 23.0001L75 21.9167C75 19.0834 73.5 17.6667 71.3333 17.6667Z" fill="#002B5C"/>
<path d="M86.1665 32.25C83.2498 32.25 81.6665 30.6667 81.6665 27.4167V18.0833H79.4165V15.5833H81.6665V11.75L84.9165 10.75V15.5833H88.2498V18.0833H84.9165V27.25C84.9165 28.75 85.9165 29.3333 87.0832 29.3333C87.4998 29.3333 87.9165 29.25 88.2498 29.0833V31.8333C87.8332 32 87.0832 32.25 86.1665 32.25Z" fill="#002B5C"/>
<path d="M96.1665 32.25C93.2498 32.25 91.6665 30.6667 91.6665 27.4167V18.0833H89.4165V15.5833H91.6665V11.75L94.9165 10.75V15.5833H98.2498V18.0833H94.9165V27.25C94.9165 28.75 95.9165 29.3333 97.0832 29.3333C97.4998 29.3333 97.9165 29.25 98.2498 29.0833V31.8333C97.8332 32 96.9998 32.25 96.1665 32.25Z" fill="#002B5C"/>
<path d="M113.75 23.6667L102.833 25.1667C103.166 28.1667 105.083 29.5834 107.833 29.5834C109.5 29.5834 111.25 29.1667 112.416 28.5834L113.416 31.0834C112.166 31.7501 109.916 32.2501 107.666 32.2501C102.5 32.2501 99.583 28.9167 99.583 23.6667C99.583 18.6667 102.416 15.1667 107 15.1667C111.25 15.1667 113.833 18.0001 113.833 22.4167C113.833 22.8334 113.833 23.2501 113.75 23.6667ZM106.916 17.6667C104.333 17.6667 102.666 19.5834 102.583 23.0001L110.583 21.9167C110.583 19.0834 109.166 17.6667 106.916 17.6667Z" fill="#002B5C"/>
<path d="M123.916 18.0833C123.416 18 122.833 17.9167 122.25 17.9167C121.333 17.9167 120.333 18.0833 119.666 18.3333V32H116.333V16.4167C117.916 15.75 120.25 15.25 122.666 15.25C123.416 15.25 124 15.25 124.5 15.3333L123.916 18.0833Z" fill="#002B5C"/>
<path d="M132.5 32.3333C128.833 32.3333 125.25 29.75 125.25 23.75C125.25 17.8333 128.833 15.25 132.5 15.25C134.333 15.25 135.667 15.6667 136.75 16.4167L135.667 18.8333C135 18.3333 134 18 133 18C130.833 18 128.75 19.75 128.75 23.75C128.75 27.75 130.833 29.5833 133 29.5833C134 29.5833 135 29.25 135.667 28.75L136.75 31.25C135.667 31.9167 134.333 32.3333 132.5 32.3333Z" fill="#002B5C"/>
<path d="M145 32.3333C140.333 32.3333 137.75 28.6667 137.75 23.75C137.75 18.8333 140.333 15.25 145 15.25C149.667 15.25 152.25 18.9167 152.25 23.75C152.167 28.6667 149.667 32.3333 145 32.3333ZM145 17.9167C142.417 17.9167 141.167 20.25 141.167 23.75C141.167 27.25 142.417 29.6667 145 29.6667C147.583 29.6667 148.833 27.3333 148.833 23.75C148.833 20.1667 147.583 17.9167 145 17.9167Z" fill="#002B5C"/>
<path d="M161.083 32.3333C156.333 32.3333 154 30.4167 154 27.1667C154 22.5833 158.917 21.75 163.833 21.5V20.5C163.833 18.4167 162.5 17.6667 160.333 17.6667C158.75 17.6667 156.917 18.1667 155.75 18.6667L154.917 16.4167C156.25 15.8333 158.417 15.25 160.667 15.25C164.583 15.25 167 16.75 167 20.8333V31.1667C165.833 31.8333 163.417 32.3333 161.083 32.3333ZM163.833 23.75C160.5 23.9167 157.083 24.1667 157.083 27.1667C157.083 28.9167 158.417 30 160.917 30C162 30 163.25 29.8333 163.75 29.5833V23.75H163.833Z" fill="#002B5C"/>
<path d="M176.75 32.3333C173.083 32.3333 169.5 29.75 169.5 23.75C169.5 17.8333 173.083 15.25 176.75 15.25C178.583 15.25 179.917 15.6667 181 16.4167L179.917 18.8333C179.25 18.3333 178.25 18 177.25 18C175.083 18 173 19.75 173 23.75C173 27.75 175.083 29.5833 177.25 29.5833C178.25 29.5833 179.25 29.25 179.917 28.75L181 31.25C179.917 31.9167 178.583 32.3333 176.75 32.3333Z" fill="#002B5C"/>
<path d="M193 32V21.0834C193 19 191.667 17.9167 189.5 17.9167C188.5 17.9167 187.333 18.25 186.583 18.6667V32H183.25V8.08337H186.583V16.1667C187.583 15.6667 189 15.25 190.25 15.25C194.083 15.25 196.417 17.1667 196.417 20.75V31.9167H193V32Z" fill="#002B5C"/>
</g>
<defs>
<clipPath id="clip0_1865_4451">
<rect width="195.833" height="40" fill="white" transform="translate(0.5)"/>
</clipPath>
</defs>
</svg>
